<svg id="layer" xmlns="http://www.w3.org/2000/svg" viewBox="0 0 450 450"><defs><style>.cls-1{fill:#fff;}.cls-2{fill:#e9f7fa;}</style></defs><title>cloud</title><path class="cls-1" d="M86,294.81a1.4,1.4,0,0,0-.58.12,2.29,2.29,0,0,0-2.23-1.79l-.25,0a1.09,1.09,0,0,0,0-.18,2.68,2.68,0,0,0-4.64-1.82l-.27-.09v0a1.46,1.46,0,0,0-1.39-1.45,2.71,2.71,0,0,0,0-.41,2.3,2.3,0,1,0-4.6,0v0l-.34,0a3.57,3.57,0,0,0-.8.09,3.78,3.78,0,0,0-6.15,3,3.91,3.91,0,0,0,.46,1.83,2.28,2.28,0,0,0-.43,1.18,1.46,1.46,0,1,0,.35,1.39,2.26,2.26,0,0,0,1.92,1.06H83.18a2.26,2.26,0,0,0,1.59-.64A1.46,1.46,0,1,0,86,294.81Z"/><path class="cls-2" d="M442.94,176.83a2,2,0,0,0-.81.17,3.17,3.17,0,0,0-3.1-2.48,1.94,1.94,0,0,0-.34,0,1.93,1.93,0,0,0,0-.24,3.73,3.73,0,0,0-6.46-2.54l-.37-.12v0a2,2,0,0,0-1.93-2A3.43,3.43,0,0,0,430,169a3.2,3.2,0,1,0-6.39,0v0a3.71,3.71,0,0,0-.47,0,5.82,5.82,0,0,0-1.12.12,5.28,5.28,0,0,0-7.91,6.67,3,3,0,0,0-.61,1.64,2.05,2.05,0,0,0-1.47-.63,2,2,0,1,0,0,4.06,2,2,0,0,0,2-1.49,3.19,3.19,0,0,0,2.69,1.48H439a3.18,3.18,0,0,0,2.21-.9,2,2,0,1,0,1.7-3.15Z"/><path class="cls-2" d="M385.55,423.54a2,2,0,0,0-.81.17,3.18,3.18,0,0,0-3.1-2.49l-.34,0c0-.08,0-.15,0-.23a3.73,3.73,0,0,0-6.46-2.54l-.37-.13v0a2,2,0,0,0-1.93-2,3.45,3.45,0,0,0,.05-.57,3.2,3.2,0,0,0-6.39,0v0l-.47,0a5.13,5.13,0,0,0-1.12.12,5.28,5.28,0,0,0-7.92,6.66,3.18,3.18,0,0,0-.6,1.65,2,2,0,1,0,.48,1.94,3.19,3.19,0,0,0,2.68,1.48h22.38a3.18,3.18,0,0,0,2.21-.9,2,2,0,1,0,1.7-3.15Z"/><path class="cls-1" d="M430.71,323.94a1.45,1.45,0,0,0-.51.1,2,2,0,0,0-1.95-1.56H428v-.15a2.34,2.34,0,0,0-4.06-1.59l-.23-.08v0a1.27,1.27,0,0,0-1.21-1.27,2,2,0,1,0-4-.36v0l-.3,0a3.27,3.27,0,0,0-.7.08,3.32,3.32,0,0,0-5,4.19,2,2,0,0,0-.38,1,1.28,1.28,0,1,0,.31,1.22,2,2,0,0,0,1.68.93h14.07a2,2,0,0,0,1.39-.56,1.29,1.29,0,0,0,1.07.57,1.28,1.28,0,0,0,0-2.55Z"/><path class="cls-1" d="M35,109.05a1.19,1.19,0,0,0-.51.11,2,2,0,0,0-2-1.57l-.22,0a.76.76,0,0,0,0-.15,2.34,2.34,0,0,0-4.06-1.6l-.23-.08v0a1.28,1.28,0,0,0-1.22-1.27,2,2,0,0,0,0-.36,2,2,0,0,0-4,0v0h-.3a3.2,3.2,0,0,0-.7.07,3.32,3.32,0,0,0-5.39,2.6,3.3,3.3,0,0,0,.41,1.59,2,2,0,0,0-.38,1,1.29,1.29,0,0,0-.92-.39,1.28,1.28,0,1,0,1.22,1.62,2,2,0,0,0,1.69.92H32.54a2,2,0,0,0,1.39-.56,1.29,1.29,0,0,0,1.07.57,1.28,1.28,0,0,0,0-2.55Z"/><path class="cls-1" d="M193.81,378.91a2.5,2.5,0,0,0-1,.22,4.05,4.05,0,0,0-3.95-3.17l-.44,0c0-.1,0-.2,0-.3a4.76,4.76,0,0,0-8.24-3.23l-.47-.16v0a2.58,2.58,0,0,0-2.46-2.58,4.18,4.18,0,0,0,.07-.72,4.08,4.08,0,1,0-8.15,0V369l-.6,0a6.57,6.57,0,0,0-1.42.15,6.73,6.73,0,0,0-10.09,8.5,4,4,0,0,0-.78,2.09,2.59,2.59,0,1,0,.62,2.48,4,4,0,0,0,3.42,1.88h28.52a4,4,0,0,0,2.82-1.15,2.58,2.58,0,1,0,2.16-4Z"/><path class="cls-1" d="M211.6,198a1,1,0,0,0-.38.08,1.46,1.46,0,0,0-1.43-1.15h-.15v-.11a1.72,1.72,0,0,0-1.72-1.72,1.7,1.7,0,0,0-1.26.55l-.17-.06h0a.94.94,0,0,0-.89-.94,2.11,2.11,0,0,0,0-.26,1.48,1.48,0,0,0-3,0v0h-.22a2.94,2.94,0,0,0-.51.05,2.44,2.44,0,0,0-3.65,3.08,1.47,1.47,0,0,0-.28.76.94.94,0,1,0-.68,1.58.93.93,0,0,0,.9-.69,1.48,1.48,0,0,0,1.24.69h10.32a1.44,1.44,0,0,0,1-.42,1,1,0,0,0,.79.42.94.94,0,0,0,0-1.87Z"/><path class="cls-2" d="M250.18,51.85a4.13,4.13,0,0,0-1.65.35,6.47,6.47,0,0,0-6.32-5.06q-.35,0-.69,0c0-.16,0-.32,0-.48a7.59,7.59,0,0,0-13.16-5.17l-.76-.25s0-.05,0-.07a4.14,4.14,0,0,0-3.94-4.12,6.23,6.23,0,0,0,.11-1.15,6.52,6.52,0,1,0-13,0V36c-.31,0-.64,0-1,0a10.6,10.6,0,0,0-2.27.25,10.75,10.75,0,0,0-16.13,13.57,6.45,6.45,0,0,0-1.24,3.35,4.15,4.15,0,1,0,1,4,6.45,6.45,0,0,0,5.46,3h45.59a6.41,6.41,0,0,0,4.51-1.84,4.14,4.14,0,1,0,3.46-6.41Z"/><path class="cls-2" d="M58.39,276.06a2.74,2.74,0,0,0-1.14.24,4.52,4.52,0,0,0-4.41-3.53l-.49,0c0-.11,0-.22,0-.34a5.29,5.29,0,0,0-9.18-3.6c-.17-.07-.35-.12-.53-.18v0a2.88,2.88,0,0,0-2.74-2.88A4.26,4.26,0,0,0,40,265a4.55,4.55,0,1,0-9.1,0,.43.43,0,0,0,0,.05l-.67,0a7.52,7.52,0,0,0-1.59.17,7.5,7.5,0,0,0-11.25,9.47,4.57,4.57,0,0,0-.87,2.34,2.85,2.85,0,0,0-2.07-.89,2.89,2.89,0,1,0,2.77,3.65,4.5,4.5,0,0,0,3.81,2.1h31.8A4.49,4.49,0,0,0,56,280.53a2.89,2.89,0,1,0,2.41-4.47Z"/><path class="cls-2" d="M331.25,239.89a2.92,2.92,0,0,0-1.15.24,4.52,4.52,0,0,0-4.41-3.53l-.48,0c0-.11,0-.22,0-.33a5.29,5.29,0,0,0-9.18-3.61l-.53-.18v0a2.87,2.87,0,0,0-2.75-2.87,4.45,4.45,0,0,0,.08-.81,4.55,4.55,0,1,0-9.09,0v.06c-.22,0-.44,0-.67,0a7.59,7.59,0,0,0-1.59.17,7.5,7.5,0,0,0-11.25,9.47,4.47,4.47,0,0,0-.86,2.34,2.89,2.89,0,1,0,.69,2.76,4.51,4.51,0,0,0,3.81,2.1h31.8a4.51,4.51,0,0,0,3.15-1.28,2.88,2.88,0,1,0,2.41-4.47Z"/></svg>