<svg id="圖層_1" data-name="圖層 1" xmlns="http://www.w3.org/2000/svg" viewBox="0 0 112.13 25.1"><defs><style>.cls-1{fill:#231815;stroke-width:0.5px;}.cls-1,.cls-2{stroke:#231815;stroke-miterlimit:10;}.cls-2{fill:none;stroke-linecap:round;stroke-width:2px;}</style></defs><title>gotaiwan_logo</title><path class="cls-1" d="M0,13.24a15,15,0,0,1,.28-2.81,17.76,17.76,0,0,1,.8-2.94,18.28,18.28,0,0,1,1.31-2.8A11,11,0,0,1,4.17,2.33,8.72,8.72,0,0,1,6.43.7,6,6,0,0,1,9.11.09a2.65,2.65,0,0,1,1.54.44,4.19,4.19,0,0,1,1.13,1.13,5.15,5.15,0,0,1,.7,1.52,6,6,0,0,1,.23,1.65c0,.14,0,.33,0,.58a3.43,3.43,0,0,1-.14.71,1.64,1.64,0,0,1-.3.59.54.54,0,0,1-.56.15.74.74,0,0,1-.56-.52,3.51,3.51,0,0,1-.17-1c0-.37,0-.76-.06-1.19A3.67,3.67,0,0,0,10.68,3a2,2,0,0,0-.62-.86,1.87,1.87,0,0,0-1.24-.35,4.16,4.16,0,0,0-2.18.58A6.54,6.54,0,0,0,4.89,3.94a9.91,9.91,0,0,0-1.3,2.17,18.19,18.19,0,0,0-.91,2.5,20,20,0,0,0-.54,2.55A16.11,16.11,0,0,0,2,13.42,16.78,16.78,0,0,0,2.29,17a6.05,6.05,0,0,0,1.14,2.57,4.84,4.84,0,0,0,2.24,1.55,10.76,10.76,0,0,0,3.59.51,6,6,0,0,0,2.68-.53,7.53,7.53,0,0,0,2.12-1.43,7.86,7.86,0,0,0,1.48-1.95,7.08,7.08,0,0,0,.75-2.06,4,4,0,0,0,0-1.78,1.68,1.68,0,0,0-.93-1.1,6.93,6.93,0,0,0-4.08-.32A16.68,16.68,0,0,0,6,14.5l-.06,0H5.89a.44.44,0,0,1-.29-.12,1.38,1.38,0,0,1-.27-.27,1.63,1.63,0,0,1-.19-.34.79.79,0,0,1-.07-.29,6.19,6.19,0,0,1,1.58-1.19,14.37,14.37,0,0,1,2.27-1,15.54,15.54,0,0,1,2.61-.63,10.32,10.32,0,0,1,2.59-.07,6,6,0,0,1,2.21.66,3.5,3.5,0,0,1,1.51,1.58,10,10,0,0,1,0,4.29,7.5,7.5,0,0,1-1.71,3.34A8,8,0,0,1,13,22.62a10.86,10.86,0,0,1-4.28.64,9.2,9.2,0,0,1-3.9-.76,7.45,7.45,0,0,1-2.71-2.11A9,9,0,0,1,.51,17.21,14.73,14.73,0,0,1,0,13.24Z"/><path class="cls-1" d="M19,14.09a7.49,7.49,0,0,1,.43-2.49,6.6,6.6,0,0,1,1.2-2.12A5.94,5.94,0,0,1,22.47,8a5.24,5.24,0,0,1,2.43-.56,6.58,6.58,0,0,1,2.8.73A8.4,8.4,0,0,1,30,9.92a9.14,9.14,0,0,1,1.67,2.43,10.28,10.28,0,0,1,.9,2.8,8.34,8.34,0,0,1,0,2.82,6.08,6.08,0,0,1-1.1,2.52,6.43,6.43,0,0,1-2.31,1.89,9.43,9.43,0,0,1-3.68.91,4.62,4.62,0,0,1-2.86-.92,7.87,7.87,0,0,1-2-2.3,11,11,0,0,1-1.2-3A12.77,12.77,0,0,1,19,14.09Zm2,.32a14.06,14.06,0,0,0,.19,2.26,7.53,7.53,0,0,0,.69,2.23,4.6,4.6,0,0,0,1.39,1.7,3.69,3.69,0,0,0,2.3.67A6.89,6.89,0,0,0,29,20.08a4.56,4.56,0,0,0,1.69-2.25A5.56,5.56,0,0,0,30.83,15a7.27,7.27,0,0,0-1.11-2.74,7.77,7.77,0,0,0-2.11-2.13,5.62,5.62,0,0,0-2.82-1,3.59,3.59,0,0,0-1.65.41A3.32,3.32,0,0,0,22,10.65a5.47,5.47,0,0,0-.72,1.64A12.59,12.59,0,0,0,21,14.41Z"/><path class="cls-1" d="M41,3.34a7.62,7.62,0,0,0-1.62.19c-.6.13-1.2.26-1.82.41s-1.22.27-1.83.38a7.64,7.64,0,0,1-1.67.13.88.88,0,0,1-.5-.25.71.71,0,0,1-.19-.45,1,1,0,0,1,.12-.53,1.49,1.49,0,0,1,.48-.5c1.14-.25,2.37-.48,3.71-.7l4.17-.66L46.38.7C47.92.49,49.47.25,51,0a1.69,1.69,0,0,1,.63.31A.88.88,0,0,1,52,.82a.74.74,0,0,1-.17.6,1.72,1.72,0,0,1-.91.51L43.21,3.37l.62,20a1.58,1.58,0,0,1-.25.89,1.19,1.19,0,0,1-.59.49.88.88,0,0,1-.7-.08,1.53,1.53,0,0,1-.63-.77Z"/><path class="cls-1" d="M56.63,17.87A8.86,8.86,0,0,1,55,19.78a10.08,10.08,0,0,1-2.09,1.43,7.36,7.36,0,0,1-2.2.72,3.35,3.35,0,0,1-2-.25,3.07,3.07,0,0,1-1.4-1.48,6.38,6.38,0,0,1-.46-3,6.34,6.34,0,0,1,.39-2.65,9.3,9.3,0,0,1,1.33-2.41,9,9,0,0,1,2-1.89A7,7,0,0,1,53,9.2a5.77,5.77,0,0,1,2.55,0A5.29,5.29,0,0,1,58,10.49c0,1.11,0,2.13.06,3s.07,1.82.16,2.72.22,1.82.39,2.77.43,2,.77,3.18a1.32,1.32,0,0,1,.13,1.1,1.45,1.45,0,0,1-.56.74.92.92,0,0,1-.79.11q-.42-.14-.57-.87Zm-7.73-1a4.12,4.12,0,0,0,.68,2.22,1.65,1.65,0,0,0,1.29.66,2.88,2.88,0,0,0,1.59-.58A6.51,6.51,0,0,0,54,17.71a8.57,8.57,0,0,0,1.16-2.08,6.65,6.65,0,0,0,.48-2.33,4.86,4.86,0,0,0-.07-.82,3.13,3.13,0,0,0-.25-.82,2,2,0,0,0-.45-.63,1,1,0,0,0-.72-.25,3.92,3.92,0,0,0-2.06.57,6,6,0,0,0-1.66,1.48,7.63,7.63,0,0,0-1.11,2A5.77,5.77,0,0,0,48.9,16.9Z"/><path class="cls-1" d="M61.41,4.83A.94.94,0,0,1,61.77,4a1.81,1.81,0,0,1,.95-.23,1.14,1.14,0,0,1,.88.38A1.24,1.24,0,0,1,64,5a2.07,2.07,0,0,1-.2.94c-.12.25-.41.38-.86.38a1.41,1.41,0,0,1-1.49-1.5Zm.67,4.87a.7.7,0,0,1,.23-.35.77.77,0,0,1,.4-.18.86.86,0,0,1,.48.09,1.26,1.26,0,0,1,.5.44q.09,3.11.13,6.34t0,6.43a2,2,0,0,1-.47.43,1.89,1.89,0,0,1-.56.24.54.54,0,0,1-.45-.07c-.13-.09-.17-.27-.13-.54Z"/><path class="cls-1" d="M74.12,8.47a62.49,62.49,0,0,1-1.36,7.8,13.24,13.24,0,0,1-1.55,4c-.54.75-1.08,1-1.62.67a4.2,4.2,0,0,1-1.5-2.08,23.33,23.33,0,0,1-1.28-4.27,56.39,56.39,0,0,1-.92-6A.73.73,0,0,1,66.11,8a.84.84,0,0,1,.51-.24.85.85,0,0,1,.57.15,1,1,0,0,1,.4.53c.41,2.36.75,4.26,1,5.7s.52,2.47.72,3.12.37.94.54.89.34-.37.53-1,.39-1.42.62-2.49.54-2.28.91-3.65a13.3,13.3,0,0,0,.5-2.24c.1-.73.22-1.38.35-1.95a2.92,2.92,0,0,1,.62-1.3,1.31,1.31,0,0,1,1.29-.28,1.67,1.67,0,0,1,1,.82,7.31,7.31,0,0,1,.63,1.63A16.76,16.76,0,0,1,76.71,10c.11.82.22,1.67.34,2.54s.24,1.73.38,2.6A20.65,20.65,0,0,0,78,17.55c.31.82.59,1.27.85,1.36s.48-.08.69-.51a9.51,9.51,0,0,0,.57-1.86c.17-.81.34-1.71.5-2.68s.31-2,.47-3,.31-1.95.48-2.79A14.76,14.76,0,0,1,82.05,6c.18-.55.39-.83.63-.85.42,0,.67.11.74.35a3.53,3.53,0,0,1,.13.91c-.07,1.17-.17,2.39-.27,3.66s-.26,2.5-.44,3.7-.41,2.33-.68,3.37a12.56,12.56,0,0,1-.93,2.64,3.65,3.65,0,0,1-1.29,1.51,1.75,1.75,0,0,1-1.69,0A4.14,4.14,0,0,1,77,19.85a10.18,10.18,0,0,1-.83-2,19.61,19.61,0,0,1-.56-2.37c-.15-.84-.28-1.68-.41-2.52s-.26-1.65-.4-2.42a12.62,12.62,0,0,0-.52-2.06Z"/><path class="cls-1" d="M94.39,17.87a8.59,8.59,0,0,1-1.64,1.91,10.08,10.08,0,0,1-2.09,1.43,7.27,7.27,0,0,1-2.2.72,3.35,3.35,0,0,1-2-.25,3,3,0,0,1-1.39-1.48,6.37,6.37,0,0,1-.47-3A6.34,6.34,0,0,1,85,14.58a9.34,9.34,0,0,1,1.34-2.41,8.93,8.93,0,0,1,2-1.89,7,7,0,0,1,2.4-1.08,5.77,5.77,0,0,1,2.55,0,5.29,5.29,0,0,1,2.43,1.31c0,1.11,0,2.13.06,3s.07,1.82.16,2.72.22,1.82.4,2.77.43,2,.76,3.18a1.29,1.29,0,0,1,.13,1.1,1.4,1.4,0,0,1-.56.74.91.91,0,0,1-.79.11q-.42-.14-.57-.87Zm-7.73-1a4.2,4.2,0,0,0,.69,2.22,1.62,1.62,0,0,0,1.29.66,2.85,2.85,0,0,0,1.58-.58,6.55,6.55,0,0,0,1.54-1.49,8.92,8.92,0,0,0,1.16-2.08,6.88,6.88,0,0,0,.48-2.33,6.19,6.19,0,0,0-.07-.82,3.56,3.56,0,0,0-.25-.82,2,2,0,0,0-.46-.63,1,1,0,0,0-.72-.25,3.92,3.92,0,0,0-2.06.57,6,6,0,0,0-1.66,1.48,7.63,7.63,0,0,0-1.11,2A6,6,0,0,0,86.66,16.9Z"/><path class="cls-1" d="M105.38,10a1.5,1.5,0,0,0-1,.41,4.53,4.53,0,0,0-.86,1.07,11.18,11.18,0,0,0-.72,1.47c-.21.53-.39,1.06-.54,1.58a13.57,13.57,0,0,0-.34,1.45,7.43,7.43,0,0,0-.11,1,9,9,0,0,0,.11,1.38c.08.45.16.9.25,1.35s.17.9.25,1.35a7.5,7.5,0,0,1,.12,1.34,1.15,1.15,0,0,1-.22.78.82.82,0,0,1-.51.28.93.93,0,0,1-.59-.16,1,1,0,0,1-.41-.57c-.39-1.8-.72-3.32-1-4.56s-.48-2.28-.66-3.11-.31-1.48-.41-1.94-.17-.82-.21-1-.06-.37-.07-.44a1,1,0,0,1,0-.14,1,1,0,0,1,.17-.68.91.91,0,0,1,.68-.19.61.61,0,0,1,.57.26,2,2,0,0,1,.23.66c0,.26.1.55.15.85a2.19,2.19,0,0,0,.31.83,6.83,6.83,0,0,1,.61-1.48A12.7,12.7,0,0,1,102.33,10a7.78,7.78,0,0,1,1.41-1.45,2.41,2.41,0,0,1,1.47-.6,3,3,0,0,1,2.76.64,7.45,7.45,0,0,1,1.94,2.92,20.47,20.47,0,0,1,1.17,4.55,44.39,44.39,0,0,1,.45,5.57,2.15,2.15,0,0,1-.16.89.92.92,0,0,1-.44.5.69.69,0,0,1-.61,0,1.69,1.69,0,0,1-.69-.68,1.34,1.34,0,0,1-.19-.77c0-.42-.06-.94-.09-1.57s-.06-1.32-.1-2.08-.1-1.53-.19-2.3a17.58,17.58,0,0,0-.4-2.23A7.74,7.74,0,0,0,108,11.5a3.21,3.21,0,0,0-1-1.23A2.17,2.17,0,0,0,105.38,10Z"/><path class="cls-2" d="M18.24,3.28a15.7,15.7,0,0,0,2.57,3"/><path class="cls-2" d="M23.81,1.54a19.19,19.19,0,0,0,.52,3.59"/><path class="cls-2" d="M28.88,3.28a10.79,10.79,0,0,1-1.09,2"/></svg>